<svg xmlns="http://www.w3.org/2000/svg" fill="none" viewBox="0 0 20 20"><path fill="#fff" d="M16 7h-2.5c-.827 0-1.5-.673-1.5-1.5V2H4v16h12V7z"/><path fill="#fff" d="M16 6v-.293l-3-3V5.5c0 .275.225.5.5.5H16z"/><path fill="#605E5C" fill-rule="evenodd" d="M16.707 5 13 1.293A1 1 0 0 0 12.293 1H4a1 1 0 0 0-1 1v16a1 1 0 0 0 1 1h12a1 1 0 0 0 1-1V5.707A1 1 0 0 0 16.707 5zM16 5.707V6h-2.5a.501.501 0 0 1-.5-.5V2.707l3 3zM4 2.2v15.6c0 .11.09.2.2.2h11.6a.2.2 0 0 0 .2-.2V7h-2.5A1.5 1.5 0 0 1 12 5.5V2H4.2a.2.2 0 0 0-.2.2z" clip-rule="evenodd" opacity=".64"/></svg>